<svg version="1" xmlns="http://www.w3.org/2000/svg" width="2666.667" height="2666.667" viewBox="0 0 2000.000000 2000.000000"><path d="M1657.5 116.1c-41.2 3.9-82.7 15-125 33.5-6 2.6-21.9 10.3-35.2 17.1-26.4 13.5-40.8 19.5-59.3 24.8-28.4 8.2-50.4 11-80.5 10.2-24.3-.6-37.4-2.5-60-8.7-62.4-17.1-132.7-29.3-199-34.4-136.8-10.7-275.3 4.3-403.2 43.5-22.5 6.9-32.2 8.2-58.3 8.3-23.3 0-37.8-1.5-57.4-5.9-26.3-6-41.2-11.8-78.4-30.4-29.5-14.8-39.8-19.5-60.8-27.2-120.1-44.2-236.5-25.4-330.4 53.2-13.3 11.1-35.5 33.6-45.3 45.9-15.3 19.1-31.6 47.9-40.1 71C9.2 359.1 2.9 403.4 5.9 449c3.5 51.9 13.8 93.1 35.6 141 13.6 30.1 37.6 74.2 51.7 95.3 9.6 14.3 15.8 26.9 19 38.7 2 7.4 2.3 10.7 2.2 25v16.5l-8.3 23.5c-29.2 83.2-47 168.1-53.1 253.5-4.4 62.5-3.8 140.8 1.5 200 15.1 166.2 66.3 299.3 156.8 407.1 81.4 97 210.4 181.6 356.6 233.9 125.1 44.7 300.7 74.5 438.6 74.5 98.3 0 228.8-15.8 336.4-40.6 197.4-45.6 375-147.6 479.2-275.4 87.2-107 136.8-240.3 150.9-406.2 5.4-64.1 5.2-147.8-.5-211.3-8.7-95.7-32.3-192.3-68.8-281.5-9.8-24-10-24.7-10.4-33.8-.7-15.7 1.8-21.1 22.8-48.8 17.2-22.8 29.2-44 42.8-75.9 22.2-51.9 34.3-104.3 35.8-156 2.1-74-17.8-139.1-58.5-190.5-10.3-13.1-40.3-42.6-54.2-53.4-52.2-40.5-107.3-62.8-169.5-68.6-12.7-1.2-41.9-1.1-55 .1zM1091 267.4c96.7 8.4 175.7 25.5 256.6 55.7 125.5 46.7 220.5 112.7 305.7 212.3C1765 666 1840.1 837.2 1861 1009c9.8 81.3 8.9 186.1-2.5 266.6-16.7 117.8-55.9 215.4-117.3 292.4-40.5 50.9-96.2 98.1-163.9 139.3-76.1 46.2-166 82.1-259.6 103.6-86.5 19.9-192.1 33.9-280.4 37.2-94.4 3.4-214.7-10.2-328.1-37.2-138.7-33.1-254.3-88.5-349.2-167.4-19.3-16-54-50.7-68.3-68.2-66.3-81.2-106.6-180.1-123.7-303.3-7.2-52.4-10.1-114-8.2-173.4 2.1-62.5 6.5-103.7 16.2-152.6 39.3-197.9 145.1-381.1 290.1-502.2 79.4-66.3 185.2-118.1 303.9-148.7 62.7-16.2 120.8-25 194.5-29.5 3.3-.2 29-.2 57-.1 36.5.2 56.3.7 69.5 1.9z"/><path d="M1374.5 830.6c-24.6 2.3-38.4 4.6-55 8.8-26 6.6-54.6 18.6-75.7 31.7-62.5 38.8-102.5 115.5-99.5 190.9 2.2 55.5 27.6 114 79.1 182.5 12.6 16.9 25.2 32.4 54.1 67 13.8 16.5 32.9 39.7 42.5 51.5 61.6 75.8 102.9 112.2 152.9 134.5 51.7 23.1 110.5 27.3 166.6 12 75.9-20.8 128.3-72.7 154.5-153.1 15-45.9 18.9-101.2 11-155-7.2-48.8-24.4-98.1-48.3-137.9-16.9-28.3-37.4-53.4-71.1-87.1-51.4-51.3-98.8-87.8-142.6-109.7-37.5-18.8-74.7-30-115.5-34.7-9.4-1.1-46.1-2.1-53-1.4zm10.6 130.9c44.5 9.3 76.1 45.7 78.6 90.2 3.2 57.8-44.7 104.7-104.2 102-37.6-1.7-70.6-23.7-86.1-57.1-6.6-14.3-7.9-21.1-7.8-40.1 0-15.5.3-17.8 2.7-25.8 11.9-38.8 43.9-65.6 84.5-70.7 8.3-1.1 23.5-.3 32.3 1.5zM589.7 850.1c-54.4 5.3-109.8 26.2-157.1 59.4-52.8 36.9-110.5 92.1-142.8 136.6-35.4 48.6-58 110.9-63.9 176.2-1.7 18.5-.6 59.5 1.9 76.2 8.3 53.5 27.4 97.2 57.9 132.6 26.9 31.2 69.2 54.9 114.3 63.9 53.5 10.7 105 4.3 151.2-18.8 43-21.4 80.6-54.9 130.1-115.6 6.7-8.2 26.6-32.3 44.2-53.5 35.9-43.3 49-59.8 62.3-78.3 34.4-47.8 55.6-92.4 63.4-133.6 3-15.5 3.2-51.2.5-66.2-7.5-40.6-23.5-74.7-49.2-105.1-33.2-39.1-89.2-66-153-73.4-14-1.6-44.8-1.8-59.8-.4zM670 961.6c57.3 11.8 91.9 70.5 73.8 125.1-11.6 35.2-42.9 60.8-80.7 66.4-10.8 1.5-27.9.6-39.1-2.1-18.6-4.5-40.4-18.2-52.3-32.8-24.4-29.9-29.2-68.5-12.8-102.7 5.7-11.8 11.5-19.8 21-28.7 12-11.4 24.7-18.7 40.6-23.3 16.2-4.7 32.7-5.3 49.5-1.9zM995.5 1225.6c-30 2.9-54.5 10-75.7 22-43.3 24.4-67.8 62.3-67.8 104.6 0 59.4 51.4 110.2 124.5 123.4 12.3 2.2 39.5 3 52.5 1.5 39-4.5 73.9-19.8 99-43.8 42.2-40.1 49.3-95.5 18.3-142.1-6.7-10.2-20.9-24.8-31.3-32.4-28.9-21.1-62.3-32.1-100.7-33.2-8.2-.2-16.6-.2-18.8 0zM804.5 1526.4c-18.2 4.6-29.8 20.5-28.2 38.4 1.2 12.1 8.5 23 28.3 42.2 30.8 29.7 71.3 52.7 113.7 64.4 20 5.5 25.6 6.7 42.7 9.2 44.4 6.3 94.4 3.1 136-8.7 46.8-13.3 87.1-36.6 119.5-69.3 14.8-14.9 20.9-23.6 23.2-33 3.9-16.1-4.1-32.7-19.5-40.3-5.1-2.5-6.7-2.8-15.7-2.8-15.2.1-17.7 1.6-37.4 23.4-28.3 31.4-75.1 53.3-127.1 59.7-18.9 2.3-57.5 1.5-74.3-1.5-52.1-9.3-92.8-30.9-121.5-64.5-4.6-5.3-10-10.7-12-12.1-7.9-5.2-19.2-7.3-27.7-5.1z"/></svg>